<?xml version="1.0" encoding="utf-8"?>
<!-- Generator: Adobe Illustrator 15.1.0, SVG Export Plug-In . SVG Version: 6.00 Build 0)  -->
<!DOCTYPE svg PUBLIC "-//W3C//DTD SVG 1.1//EN" "http://www.w3.org/Graphics/SVG/1.1/DTD/svg11.dtd">
<svg version="1.1" id="Layer_1" xmlns="http://www.w3.org/2000/svg" xmlns:xlink="http://www.w3.org/1999/xlink" x="0px" y="0px"
	 width="225px" height="17px" viewBox="0 0 225 17" enable-background="new 0 0 225 17" xml:space="preserve">
<g enable-background="new    ">
	<path fill="#002A5C" d="M10.604,2.766l0.023,0.023v2.362c0,0.184-0.161,0.321-0.344,0.321H7.577c-0.183,0-0.321-0.138-0.321-0.321
		V4.005H4.412c-0.046,0-0.092,0-0.161,0.068L3.884,4.44C3.792,4.532,3.792,4.624,3.792,4.624v1.857l0.023-0.023
		c0,0-0.023,0.092,0.069,0.184l0.321,0.321h4.289c0,0,0.321-0.046,0.596,0.252L10.375,8.5c0.275,0.274,0.252,0.596,0.252,0.596
		v5.436c0,0,0.023,0.321-0.252,0.597L9.09,16.412c-0.275,0.274-0.596,0.252-0.596,0.252h-5.94c0,0-0.321,0.022-0.596-0.252
		l-1.284-1.284c-0.275-0.275-0.229-0.597-0.229-0.597s-0.023-0.023-0.023-0.046v-2.225c0-0.184,0.161-0.321,0.344-0.321h2.706
		c0.184,0,0.321,0.138,0.321,0.321v1.032h2.89c0.045,0,0.068-0.023,0.114-0.069l0.39-0.366c0.069-0.092,0.069-0.184,0.069-0.184
		v-1.721c0,0,0-0.092-0.069-0.183l-0.39-0.367c-0.046-0.046-0.069-0.069-0.114-0.069H2.554c0,0-0.321,0.023-0.596-0.252L0.674,8.798
		C0.398,8.522,0.444,8.201,0.444,8.201H0.421V2.766h0.023c0,0-0.046-0.32,0.229-0.596l1.284-1.284
		c0.275-0.299,0.596-0.253,0.596-0.253h5.94c0,0,0.321-0.046,0.596,0.253l1.284,1.284c0.275,0.275,0.252,0.596,0.252,0.596H10.604z"
		/>
	<path fill="#002A5C" d="M23.427,14.531c0,0,0.045,0.321-0.229,0.597l-1.307,1.284c-0.275,0.274-0.574,0.252-0.574,0.252h-5.939
		c0,0-0.321,0.022-0.597-0.252l-1.284-1.284c-0.275-0.275-0.252-0.597-0.252-0.597V2.766c0,0-0.023-0.32,0.252-0.596l1.284-1.284
		c0.275-0.299,0.597-0.253,0.597-0.253h5.917c0,0,0.321-0.046,0.597,0.253l1.307,1.284c0.275,0.275,0.229,0.596,0.229,0.596V14.531z
		 M17.212,4.005c-0.023,0-0.092,0-0.138,0.068l-0.39,0.367c-0.069,0.092-0.069,0.184-0.069,0.184v8.188
		c0,0.046,0.023,0.092,0.069,0.16l0.321,0.321h2.661l0.321-0.321c0.069-0.068,0.069-0.114,0.069-0.16V4.624
		c0,0,0.023-0.092-0.069-0.184L19.62,4.073c-0.069-0.068-0.138-0.068-0.161-0.068H17.212z"/>
	<path fill="#002A5C" d="M35.952,14.531c0,0,0.045,0.321-0.229,0.597l-1.284,1.284c-0.275,0.274-0.597,0.252-0.597,0.252
		l-5.94-0.022c0,0-0.321,0.045-0.596-0.229l-1.284-1.284c-0.275-0.275-0.252-0.597-0.252-0.597h0.023
		c0-0.023-0.023-0.023-0.023-0.046V0.954c0-0.184,0.161-0.321,0.321-0.321h2.729c0.184,0,0.321,0.138,0.321,0.321v11.857
		c0,0.022,0.023,0.092,0.069,0.16l0.321,0.321h2.661l0.321-0.321c0.069-0.068,0.069-0.138,0.092-0.16V0.954
		c0-0.184,0.138-0.321,0.321-0.321h2.706c0.184,0,0.321,0.138,0.321,0.321V14.531z"/>
	<path fill="#002A5C" d="M48.133,1.023v2.706c0,0.184-0.161,0.321-0.344,0.321h-2.913v12.338c-0.023,0.161-0.16,0.275-0.321,0.275
		h-2.706c-0.161,0-0.298-0.114-0.321-0.275V4.051h-2.913c-0.184,0-0.344-0.138-0.344-0.321V1.023c0-0.184,0.161-0.345,0.344-0.345
		h9.173C47.972,0.679,48.133,0.84,48.133,1.023z"/>
	<path fill="#002A5C" d="M60.749,0.954v15.389c0,0.184-0.137,0.321-0.321,0.321h-2.729c-0.161,0-0.321-0.138-0.321-0.321v-6.009
		h-3.44v6.009c0,0.184-0.161,0.321-0.321,0.321h-2.729c-0.184,0-0.321-0.138-0.321-0.321V0.954c0-0.184,0.138-0.321,0.321-0.321
		h2.729c0.161,0,0.321,0.138,0.321,0.321v6.009h3.44V0.954c0-0.184,0.161-0.321,0.321-0.321h2.729
		C60.612,0.633,60.749,0.771,60.749,0.954z"/>
	<path fill="#002A5C" d="M74.354,6.963h4.059c0.184,0,0.321,0.138,0.321,0.321v2.729c0,0.183-0.138,0.32-0.321,0.32h-4.059v2.959
		h5.297c0.161,0,0.321,0.138,0.321,0.321v2.729c0,0.184-0.161,0.321-0.321,0.321h-8.348c-0.184,0-0.321-0.138-0.321-0.321V0.954
		c0-0.184,0.138-0.321,0.321-0.321h8.348c0.161,0,0.321,0.138,0.321,0.321v2.729c0,0.184-0.161,0.321-0.321,0.321h-5.297V6.963z"/>
	<path fill="#002A5C" d="M92.52,13.614v2.729c0,0.184-0.161,0.321-0.344,0.321h-9.173c-0.184,0-0.344-0.138-0.344-0.321V0.954h0.023
		c0.023-0.138,0.161-0.252,0.321-0.252h2.706c0.161,0,0.298,0.114,0.321,0.252v12.339h6.146
		C92.359,13.293,92.52,13.453,92.52,13.614z"/>
	<path fill="#002A5C" d="M100.458,10.793c-0.184,0-0.321-0.16-0.321-0.321V7.743c0-0.184,0.138-0.321,0.321-0.321h4.541
		c0.184,0,0.344,0.138,0.344,0.321v6.972h-0.023c-0.023,0.114-0.092,0.275-0.229,0.413l-1.285,1.284
		c-0.275,0.274-0.596,0.252-0.596,0.252h-5.94c0,0-0.321,0.022-0.596-0.252l-1.284-1.284c-0.275-0.275-0.229-0.597-0.229-0.597
		l-0.023-0.023V2.766h0.023c0,0-0.046-0.32,0.229-0.596l1.284-1.284c0.275-0.275,0.596-0.253,0.596-0.253h5.94
		c0,0,0.321-0.022,0.596,0.253l1.285,1.284c0.275,0.275,0.252,0.596,0.252,0.596h-0.023l0.023,0.023V5.22
		c0,0.161-0.16,0.321-0.344,0.321h-2.707c-0.183,0-0.321-0.16-0.321-0.321V4.624c0,0,0-0.092-0.069-0.161l-0.39-0.39
		c-0.046-0.068-0.115-0.068-0.161-0.068h-2.225c-0.046,0-0.092,0-0.161,0.068L98.6,4.463c-0.091,0.069-0.091,0.161-0.091,0.161
		v8.188c0.023,0.046,0.023,0.092,0.091,0.16l0.298,0.321h2.683l0.321-0.321c0.046-0.068,0.069-0.114,0.069-0.16v-2.019H100.458z"/>
	<path fill="#002A5C" d="M111.24,1.023v15.319c0,0.184-0.138,0.321-0.321,0.321h-2.729c-0.184,0-0.321-0.138-0.321-0.321V1.023
		c0-0.184,0.138-0.321,0.321-0.321h2.729C111.102,0.702,111.24,0.84,111.24,1.023z"/>
	<path fill="#002A5C" d="M124.13,0.932V16.32c0,0.16-0.138,0.321-0.321,0.321h-3.623c-0.184,0-0.344-0.161-0.413-0.321l-2.798-7.66
		v7.66c0,0.16-0.16,0.321-0.321,0.321h-2.729c-0.184,0-0.32-0.161-0.32-0.321V0.932c0-0.184,0.137-0.321,0.32-0.321h3.418
		c0.16,0,0.275,0.114,0.32,0.321h0.023l3.027,8.853l0.046,0.252V0.932c0-0.184,0.16-0.321,0.321-0.321h2.729
		C123.992,0.61,124.13,0.748,124.13,0.932z"/>
	<path fill="#002A5C" d="M144.064,8.592l-0.023,0.022h0.023c0,0,0.022,0.321-0.253,0.597l-1.284,1.307
		c-0.275,0.275-0.596,0.229-0.596,0.229h-4.243v5.573c0,0.16-0.161,0.321-0.345,0.321h-2.705c-0.184,0-0.322-0.161-0.322-0.321
		V0.932c0-0.184,0.139-0.321,0.322-0.321h7.293c0,0,0.32-0.046,0.596,0.229l1.284,1.307c0.275,0.275,0.253,0.597,0.253,0.597V8.592z
		 M137.688,7.376h2.362c0,0,0.092,0.022,0.184-0.069l0.39-0.366c0.068-0.092,0.068-0.184,0.068-0.184V4.601c0,0,0-0.092-0.068-0.16
		l-0.39-0.39c-0.092-0.069-0.184-0.069-0.184-0.069h-2.362V7.376z"/>
</g>
<g enable-background="new    ">
	<path fill="#002A5C" d="M158.422,16.343c0.047,0.161-0.16,0.321-0.344,0.321h-2.614c-0.184,0-0.344-0.16-0.413-0.321l-0.551-1.857
		h-4.609l-0.551,1.857c-0.068,0.161-0.229,0.321-0.412,0.321h-2.614c-0.184,0-0.39-0.16-0.345-0.321l4.541-15.365V0.954
		c0.092-0.206,0.161-0.321,0.321-0.321h1.009h0.711h1.01c0.16,0,0.252,0.115,0.32,0.321v0.023
		C155.395,6.092,156.908,11.229,158.422,16.343z M153.584,11.39l-1.377-4.702l-1.398,4.702H153.584z"/>
</g>
<g enable-background="new    ">
	<path fill="#002A5C" d="M168.425,1.023v2.706c0,0.184-0.161,0.321-0.345,0.321h-2.912v12.338c-0.023,0.161-0.16,0.275-0.32,0.275
		h-2.707c-0.16,0-0.298-0.114-0.32-0.275V4.051h-2.913c-0.184,0-0.345-0.138-0.345-0.321V1.023c0-0.184,0.161-0.345,0.345-0.345
		h9.173C168.264,0.679,168.425,0.84,168.425,1.023z"/>
	<path fill="#002A5C" d="M180.651,8.637c0,0,0.046,0.321-0.229,0.597l-1.307,1.308l-0.069,0.046l2.339,5.756
		c0.047,0.161-0.16,0.321-0.32,0.321h-3.073c-0.184,0-0.345-0.16-0.413-0.321l-2.248-5.572h-1.055v5.572
		c0,0.161-0.137,0.321-0.32,0.321h-2.729c-0.161,0-0.321-0.16-0.321-0.321V0.954c0-0.184,0.16-0.321,0.321-0.321h7.293
		c0,0,0.321-0.046,0.597,0.229l1.307,1.308c0.275,0.275,0.229,0.642,0.229,0.642V8.637z M174.275,7.398h2.408
		c0.023,0,0.092,0,0.16-0.068l0.367-0.367c0.092-0.092,0.068-0.184,0.068-0.184V4.624c0,0,0.023-0.092-0.068-0.184l-0.367-0.367
		c-0.092-0.092-0.184-0.068-0.184-0.068h-2.385V7.398z"/>
	<path fill="#002A5C" d="M186.617,1.023v15.319c0,0.184-0.138,0.321-0.321,0.321h-2.729c-0.184,0-0.32-0.138-0.32-0.321V1.023
		c0-0.184,0.137-0.321,0.32-0.321h2.729C186.479,0.702,186.617,0.84,186.617,1.023z"/>
	<path fill="#002A5C" d="M199.117,14.531c0,0,0.046,0.321-0.229,0.597l-1.308,1.284c-0.275,0.274-0.573,0.252-0.573,0.252h-5.939
		c0,0-0.322,0.022-0.598-0.252l-1.283-1.284c-0.275-0.275-0.253-0.597-0.253-0.597V2.766c0,0-0.022-0.32,0.253-0.596l1.283-1.284
		c0.275-0.299,0.598-0.253,0.598-0.253h5.916c0,0,0.321-0.046,0.597,0.253l1.308,1.284c0.274,0.275,0.229,0.596,0.229,0.596V14.531z
		 M192.902,4.005c-0.023,0-0.092,0-0.138,0.068l-0.39,0.367c-0.068,0.092-0.068,0.184-0.068,0.184v8.188
		c0,0.046,0.022,0.092,0.068,0.16l0.32,0.321h2.661l0.321-0.321c0.068-0.068,0.068-0.114,0.068-0.16V4.624
		c0,0,0.023-0.092-0.068-0.184l-0.367-0.367c-0.068-0.068-0.138-0.068-0.16-0.068H192.902z"/>
	<path fill="#002A5C" d="M211.298,1.023v2.706c0,0.184-0.161,0.321-0.345,0.321h-2.912v12.338c-0.023,0.161-0.16,0.275-0.32,0.275
		h-2.707c-0.16,0-0.298-0.114-0.32-0.275V4.051h-2.913c-0.184,0-0.345-0.138-0.345-0.321V1.023c0-0.184,0.161-0.345,0.345-0.345
		h9.173C211.137,0.679,211.298,0.84,211.298,1.023z"/>
	<path fill="#002A5C" d="M224.053,2.766l0.022,0.023v2.362c0,0.184-0.161,0.321-0.344,0.321h-2.706
		c-0.184,0-0.321-0.138-0.321-0.321V4.005h-2.844c-0.046,0-0.092,0-0.161,0.068l-0.367,0.367c-0.092,0.092-0.092,0.184-0.092,0.184
		v1.857l0.023-0.023c0,0-0.023,0.092,0.068,0.184l0.322,0.321h4.288c0,0,0.321-0.046,0.597,0.252l1.283,1.285
		c0.275,0.274,0.253,0.596,0.253,0.596v5.436c0,0,0.022,0.321-0.253,0.597l-1.283,1.284c-0.275,0.274-0.597,0.252-0.597,0.252h-5.94
		c0,0-0.32,0.022-0.596-0.252l-1.284-1.284c-0.275-0.275-0.229-0.597-0.229-0.597s-0.023-0.023-0.023-0.046v-2.225
		c0-0.184,0.161-0.321,0.345-0.321h2.706c0.184,0,0.32,0.138,0.32,0.321v1.032h2.891c0.045,0,0.068-0.023,0.114-0.069l0.39-0.366
		c0.069-0.092,0.069-0.184,0.069-0.184v-1.721c0,0,0-0.092-0.069-0.183l-0.39-0.367c-0.046-0.046-0.069-0.069-0.114-0.069h-4.129
		c0,0-0.32,0.023-0.596-0.252l-1.284-1.284c-0.275-0.275-0.229-0.597-0.229-0.597h-0.023V2.766h0.023c0,0-0.046-0.32,0.229-0.596
		l1.284-1.284c0.275-0.299,0.596-0.253,0.596-0.253h5.94c0,0,0.321-0.046,0.597,0.253l1.283,1.284
		c0.275,0.275,0.253,0.596,0.253,0.596H224.053z"/>
</g>
</svg>
