<?xml version="1.0" encoding="utf-8"?>
<!-- Generator: Adobe Illustrator 15.1.0, SVG Export Plug-In . SVG Version: 6.00 Build 0)  -->
<!DOCTYPE svg PUBLIC "-//W3C//DTD SVG 1.1//EN" "http://www.w3.org/Graphics/SVG/1.1/DTD/svg11.dtd">
<svg version="1.1" id="Layer_1" xmlns="http://www.w3.org/2000/svg" xmlns:xlink="http://www.w3.org/1999/xlink" x="0px" y="0px"
	 width="217px" height="105px" viewBox="0 0 217 105" enable-background="new 0 0 217 105" xml:space="preserve">
<g>
	<path fill="#172C54" d="M64.899,3.104C65.007,3.209,65.007,3.209,64.899,3.104L64.899,3.104z"/>
	<path fill="#FFFFFF" d="M214.269,12.694c-27.312,6.45-28.505-9.368-69.582-12.268C89.399-3.477,42.939,20.61,5.81,23.697
		c-8.064,0.67-7.019,7.384-1.223,8.523c13.994,3.267,28.434,2.851,41.65,1.079c-0.443,1.065-0.89,2.706,0.588,3.964
		c5.235,4.45,26.277,4.831,35.514,4.298c3.138-0.178,9.833-0.811,9.833-0.811c-1.909,0.18-4.895,5.999,1.416,7.638
		c38.991,10.916,57.334,28.544,78.395,56.308c8.558-1.095,16.615-11.39,13.18-19.25l1.708-4.221l6.303-2.918l-1.808-14.081
		l9.609-4.525c0,0,14.967-40.221,15.844-43.149C217.696,13.623,215.881,12.314,214.269,12.694z"/>
	<path fill="#DA2128" d="M106.078,18.23C79.046,19.828,46.608,35.106,5.309,28.295c36.605-4.94,64.511-17.049,98.549-21.87
		L106.078,18.23z"/>
	<path fill="#002A5C" d="M110.348,33.8c10.959-1.178,20.624-0.804,31.158,5.62c-21.971-2.384-32.729,3.753-46.424,5.117
		c48.382,12.698,66.096,39.829,78.093,54.863c8.387-3.564,8.84-10.851,6.705-13.451l2.158-4.629l0.099-2.972l5.782-2.704
		l-1.829-14.405l10.825-4.432l14.343-39.263c-24.301,5.044-32.174-10.671-66.749-12.815c-14.083-0.874-26.767-0.227-38.673,1.334
		l1.94,12.019c7.959-0.273,15.449,0.738,22.557,3.972c-7.815-0.484-14.846,0.164-21.707,1.437L110.348,33.8z"/>
	<path fill="#DA2128" d="M108.992,34.027c-14.953,1.762-32.3,5.943-57.327,1.227c21.571-0.586,37.718-7.807,55.49-11.356
		L108.992,34.027z"/>
	<path fill="#FFFFFF" d="M147.914,66.988c13.078,9.158,19.794,19.305,26.61,28.187c3.468-1.44,4.554-5.462,3.414-6.885l-3.299-4.062
		l3.753,0.221l1.723-2.994l-4.667-0.275l-5.256,0.949l5.331-3.65l4.058,0.237l0.151-2.311l-4.148-1.986l1.425-1.56l7.67,0.479
		l-2.206-17.081c-3.031-0.371-5.581,1.219-6.682,5.603l-13.596-0.8c1.913-4.335,4.893-6.288,10.55-5.568
		c-3.172-4.443-18.635-4.855-20.817,2.118l12.002,9.837l1.553,8.989l-4.932-7.157C156.116,65.44,151.46,62.75,147.914,66.988z"/>
	<g>
		<path fill="#DA2128" d="M164.312,30.833l-1.857,0.096l-2.487,5.838c0,0,2.212,2.712,6.71,3.166
			c2.144,0.216,5.161,0.306,7.511-0.389c0,0-0.233,0.659-0.901,0.766l-2.335,5.23l21.022-0.129l3.345-8.806l-4.654,0.112
			l0.529-1.536l4.487-0.096l3.045-8.395l-14.782,0.203l1.25-3.302c0,0-1.95-1.296-4.401-2.076
			c-5.31-1.691-10.233-0.568-12.761,0.474c-1.346,0.554-3.042,2.145-3.703,3.37c-0.875,1.623-1,2.794-0.825,3.728
			C163.78,30.545,164.312,30.833,164.312,30.833z"/>
		<path fill="#172C54" d="M170.559,23.05c1.22-0.334,2.485-0.484,3.746-0.532c0.632-0.081,1.266-0.01,1.897-0.005
			c2.115,0.094,4.264,0.496,6.129,1.531c0.407,0.224,0.825,0.425,1.223,0.667c-0.321,0.914-0.687,1.812-1.026,2.721
			c-0.104,0.282-0.246,0.554-0.296,0.854c4.12-0.04,8.238-0.098,12.356-0.145c0.26,0,0.521-0.022,0.78,0.009
			c-0.016,0.152-0.061,0.299-0.1,0.444c0.336,0.014,0.672-0.021,1.008,0.011c-0.172,0.565-0.406,1.11-0.613,1.665
			c-0.369,0.958-0.725,1.922-1.1,2.879c-0.146,0.369-0.259,0.75-0.43,1.108c-0.266,0.058-0.537,0.035-0.805,0.042
			c-1.077,0.015-2.153,0.022-3.229,0.041c-0.139-0.02-0.164,0.138-0.209,0.232c-0.205,0.543-0.415,1.084-0.617,1.628
			c-0.119,0.329-0.267,0.647-0.362,0.984c0.731,0.005,1.463-0.015,2.196-0.02c0.271,0,0.544-0.024,0.814,0.012
			c-0.023,0.146-0.051,0.29-0.081,0.434c0.33,0.083,0.671-0.06,0.995,0.059c-0.219,0.646-0.483,1.274-0.718,1.916
			c-0.537,1.394-1.056,2.796-1.601,4.187c-2.17,0.047-4.342,0.056-6.514,0.086c-2.939,0.037-5.881,0.072-8.823,0.107
			c-0.325,0-0.649,0.022-0.973-0.001c0.025-0.156,0.067-0.309,0.121-0.457c-0.332-0.008-0.666,0.034-0.995-0.018
			c0.014-0.103,0.034-0.209,0.072-0.308c0.37-0.96,0.736-1.923,1.099-2.886c0.035-0.079,0.064-0.18,0.16-0.204
			c0.224-0.094,0.473-0.152,0.652-0.328c0.254-0.234,0.366-0.571,0.494-0.883c0.113-0.31,0.254-0.613,0.318-0.939
			c-1.321,0.423-2.7,0.655-4.082,0.726c-0.449,0.003-0.894,0.079-1.342,0.051c-0.559-0.041-1.123,0.007-1.682-0.05
			c-1.027-0.06-2.053-0.2-3.051-0.453c-0.693-0.176-1.375-0.411-2.004-0.752c-0.548-0.323-1.151-0.557-1.645-0.963
			c0.243-0.722,0.536-1.428,0.798-2.143c0.325-0.797,0.593-1.618,0.934-2.406c1.369-0.041,2.737-0.027,4.105-0.066
			c-0.306-0.164-0.629-0.292-0.93-0.463c-0.513-0.305-1.102-0.498-1.523-0.938c-0.493-0.5-0.647-1.261-0.538-1.94
			c0.085-0.591,0.293-1.156,0.548-1.696c0.357-0.741,0.841-1.424,1.439-1.992C168.106,23.964,169.309,23.388,170.559,23.05
			L170.559,23.05z"/>
		<path fill="#FFFFFF" d="M171.684,23.286c1.592-0.291,3.22-0.347,4.834-0.268c1.92,0.11,3.866,0.499,5.559,1.444
			c-0.447,1.174-0.891,2.352-1.344,3.524c-1.996,0.029-3.99,0.052-5.985,0.074c0.144-0.493,0.456-0.972,0.362-1.502
			c-0.054-0.312-0.366-0.493-0.66-0.512c-0.613-0.057-1.321,0.089-1.702,0.615c-0.112,0.162-0.216,0.341-0.245,0.54
			c-0.03,0.235,0.125,0.441,0.304,0.577c0.355,0.267,0.78,0.416,1.202,0.545c0.876,0.257,1.783,0.387,2.665,0.63
			c0.737,0.202,1.48,0.429,2.138,0.829c0.357,0.205,0.654,0.53,0.764,0.935c0.189,0.672,0.032,1.38-0.172,2.029
			c-0.285,0.915-0.76,1.776-1.423,2.469c-0.572,0.601-1.269,1.083-2.021,1.428c-1.081,0.51-2.257,0.777-3.435,0.941
			c-1.194,0.154-2.406,0.193-3.612,0.166c-1.328-0.042-2.662-0.184-3.948-0.536c-0.718-0.201-1.427-0.467-2.047-0.883l-0.012-0.042
			c0.484-1.29,0.978-2.579,1.473-3.865c2.064-0.038,4.128-0.059,6.194-0.076c-0.177,0.518-0.429,1.015-0.514,1.559
			c-0.028,0.201-0.028,0.451,0.148,0.588c0.243,0.188,0.57,0.181,0.862,0.178c0.621-0.017,1.223-0.363,1.539-0.899
			c0.14-0.243,0.282-0.524,0.205-0.81c-0.093-0.301-0.363-0.506-0.628-0.65c-0.843-0.45-1.808-0.57-2.724-0.798
			c-0.83-0.198-1.659-0.417-2.443-0.763c-0.453-0.212-0.938-0.457-1.187-0.915c-0.271-0.489-0.234-1.081-0.107-1.607
			c0.375-1.47,1.281-2.812,2.552-3.652C169.294,23.895,170.487,23.517,171.684,23.286L171.684,23.286z"/>
		<path fill="#ED2E32" d="M173.871,27.77c0.041-0.343,0.349-0.637,0.687-0.693c-0.043,0.279-0.166,0.539-0.271,0.799
			C174.141,27.876,174.002,27.828,173.871,27.77L173.871,27.77z"/>
		<path fill="#FFFFFF" d="M182.046,28.781c4.218-0.059,8.44-0.109,12.658-0.154c-0.592,1.57-1.182,3.142-1.794,4.704
			c-1.947,0.021-3.896,0.05-5.843,0.068c0.119-0.389,0.341-0.772,0.282-1.193c-0.031-0.233-0.262-0.357-0.471-0.402
			c-0.499-0.111-1.014-0.08-1.522-0.079c-0.33,0.837-0.646,1.682-0.96,2.525c1.351-0.01,2.699-0.031,4.052-0.047
			c-0.346,0.92-0.693,1.838-1.049,2.753c-1.298,0.014-2.595,0.031-3.893,0.045c-0.067,0.009-0.173-0.021-0.191,0.072
			c-0.347,0.936-0.708,1.864-1.047,2.801c0.702,0.024,1.465,0.025,2.078-0.366c0.601-0.406,0.86-1.125,1.074-1.784
			c1.95-0.023,3.899-0.047,5.85-0.072c-0.651,1.728-1.316,3.448-1.967,5.176c-2.437,0.045-4.874,0.061-7.312,0.094
			c-2.668,0.032-5.335,0.067-8.002,0.095c0.314-0.834,0.625-1.673,0.958-2.502c0.243-0.125,0.513-0.214,0.71-0.418
			c0.358-0.335,0.511-0.816,0.684-1.263c0.137-0.354,0.27-0.709,0.406-1.065c0.022-0.095,0.127-0.122,0.203-0.164
			c0.68-0.307,1.324-0.705,1.881-1.205c0.729-0.646,1.301-1.462,1.677-2.36c0.296-0.723,0.536-1.489,0.531-2.277
			c-0.004-0.58-0.198-1.186-0.633-1.587c-0.351-0.342-0.808-0.54-1.24-0.758c0.051-0.147,0.106-0.293,0.167-0.438
			c0.847-0.02,1.695-0.02,2.544-0.034C181.969,28.954,181.996,28.836,182.046,28.781L182.046,28.781z"/>
		<path fill="#ED2E32" d="M178.339,28.992c0.149,0.001,0.296,0,0.446,0c-0.009,0.052-0.018,0.105-0.025,0.157
			C178.607,29.134,178.478,29.05,178.339,28.992L178.339,28.992z"/>
		<path fill="#ED2E32" d="M171.972,32.864c0.155,0.042,0.412,0.105,0.376,0.317c-0.121,0.397-0.417,0.763-0.82,0.893
			C171.627,33.655,171.8,33.257,171.972,32.864L171.972,32.864z"/>
		<path fill="#ED2E32" d="M186.567,32.695c0.072-0.003,0.144-0.007,0.219-0.013c-0.073,0.363-0.244,0.696-0.367,1.042
			c-0.074,0.003-0.149,0.008-0.222,0.014C186.276,33.377,186.438,33.041,186.567,32.695L186.567,32.695z"/>
		<path fill="#ED2E32" d="M184.58,37.956c0.07-0.002,0.141-0.007,0.214-0.011c-0.052,0.418-0.307,0.797-0.615,1.078
			C184.302,38.664,184.405,38.296,184.58,37.956L184.58,37.956z"/>
	</g>
</g>
</svg>
